<svg xmlns="http://www.w3.org/2000/svg" xmlns:xlink="http://www.w3.org/1999/xlink" width="1080" zoomAndPan="magnify" viewBox="0 0 810 1439.999935" height="1920" preserveAspectRatio="xMidYMid meet" version="1.0"><defs><clipPath id="1ef5bfdbe8"><path d="M 238 683 L 517 683 L 517 942.820312 L 238 942.820312 Z M 238 683 " clip-rule="nonzero"/></clipPath><clipPath id="d9de416f06"><path d="M 336 687 L 568 687 L 568 942.820312 L 336 942.820312 Z M 336 687 " clip-rule="nonzero"/></clipPath><clipPath id="f4a939303d"><path d="M 192 313.570312 L 618 313.570312 L 618 734 L 192 734 Z M 192 313.570312 " clip-rule="nonzero"/></clipPath><clipPath id="f09d46c7b3"><path d="M 151.464844 683 L 658.464844 683 L 658.464844 942.820312 L 151.464844 942.820312 Z M 151.464844 683 " clip-rule="nonzero"/></clipPath><clipPath id="572d83628d"><path d="M 217 827 L 238 827 L 238 942.820312 L 217 942.820312 Z M 217 827 " clip-rule="nonzero"/></clipPath><clipPath id="8ec0970ff6"><path d="M 151.464844 871 L 238 871 L 238 892 L 151.464844 892 Z M 151.464844 871 " clip-rule="nonzero"/></clipPath><clipPath id="a5f5215596"><path d="M 572 827 L 593 827 L 593 942.820312 L 572 942.820312 Z M 572 827 " clip-rule="nonzero"/></clipPath><clipPath id="ad6bf47ec6"><path d="M 572 871 L 658.464844 871 L 658.464844 892 L 572 892 Z M 572 871 " clip-rule="nonzero"/></clipPath></defs><rect x="-81" width="972" fill="#ffffff" y="-143.999994" height="1727.999922" fill-opacity="1"/><rect x="-81" width="972" fill="#ffffff" y="-143.999994" height="1727.999922" fill-opacity="1"/><path fill="#1c53a3" d="M 407.300781 511.964844 C 401.835938 511.964844 397.398438 507.527344 397.398438 502.0625 L 397.398438 492.335938 C 397.398438 486.875 401.835938 482.4375 407.300781 482.4375 C 412.761719 482.4375 417.199219 486.875 417.199219 492.335938 L 417.199219 502.0625 C 417.199219 507.527344 412.761719 511.964844 407.300781 511.964844 Z M 407.300781 511.964844 " fill-opacity="1" fill-rule="evenodd"/><path fill="#1c53a3" d="M 405.082031 805.855469 C 389.71875 805.855469 374.699219 802.953125 360.195312 797.492188 C 346.371094 792.203125 333.398438 784.351562 321.792969 774.28125 C 310.359375 764.382812 300.460938 752.777344 292.4375 739.464844 C 284.246094 725.984375 278.273438 711.304688 274.519531 695.773438 C 273.324219 690.484375 276.394531 685.191406 281.6875 683.828125 C 286.976562 682.632812 292.269531 685.703125 293.632812 690.996094 C 307.285156 746.976562 353.027344 786.230469 405.082031 786.230469 C 421.804688 786.230469 438.019531 782.304688 453.210938 774.453125 C 457.988281 771.890625 463.960938 773.941406 466.519531 778.71875 C 469.082031 783.5 467.035156 789.472656 462.253906 792.03125 C 444.164062 801.246094 424.878906 805.855469 405.082031 805.855469 Z M 405.082031 805.855469 " fill-opacity="1" fill-rule="evenodd"/><path fill="#1c53a3" d="M 303.53125 659.933594 C 282.367188 659.933594 265.300781 642.695312 265.300781 621.703125 C 265.300781 601.222656 281.34375 584.496094 301.65625 583.472656 C 307.117188 583.304688 311.722656 587.398438 311.894531 592.859375 C 312.066406 598.320312 307.96875 602.929688 302.507812 603.101562 C 292.609375 603.613281 284.757812 611.804688 284.757812 621.703125 C 284.757812 631.945312 293.121094 640.304688 303.363281 640.304688 C 311.554688 640.304688 318.890625 634.84375 321.28125 626.996094 C 322.816406 621.875 328.277344 618.800781 333.570312 620.339844 C 338.691406 621.875 341.761719 627.335938 340.226562 632.625 C 338.007812 640.476562 333.058594 647.476562 326.574219 652.425781 C 319.917969 657.203125 311.894531 659.933594 303.53125 659.933594 Z M 303.53125 659.933594 " fill-opacity="1" fill-rule="evenodd"/><path fill="#1c53a3" d="M 506.457031 659.933594 C 498.09375 659.933594 490.074219 657.203125 483.246094 652.082031 C 476.761719 647.132812 471.984375 640.136719 469.59375 632.285156 C 468.058594 627.164062 471.128906 621.53125 476.25 619.996094 C 481.371094 618.460938 487 621.53125 488.539062 626.652344 C 490.757812 634.503906 498.265625 639.964844 506.457031 639.964844 C 516.699219 639.964844 525.0625 631.601562 525.0625 621.363281 C 525.0625 611.464844 517.210938 603.269531 507.3125 602.757812 C 501.851562 602.589844 497.753906 597.808594 497.925781 592.519531 C 498.09375 587.058594 502.875 582.960938 508.164062 583.132812 C 528.644531 584.15625 544.515625 600.882812 544.515625 621.363281 C 544.859375 642.695312 527.621094 659.933594 506.457031 659.933594 Z M 506.457031 659.933594 " fill-opacity="1" fill-rule="evenodd"/><g clip-path="url(#1ef5bfdbe8)"><path fill="#1c53a3" d="M 248.746094 942.734375 C 244.820312 942.734375 241.066406 940.34375 239.53125 936.417969 C 237.652344 931.296875 240.214844 925.664062 245.332031 923.789062 C 352.683594 883.679688 415.660156 822.070312 449.625 777.523438 C 486.148438 729.566406 497.582031 691.167969 497.753906 690.652344 C 499.289062 685.535156 504.75 682.460938 509.871094 683.996094 C 514.992188 685.535156 518.0625 690.996094 516.527344 696.117188 C 516.015625 697.820312 504.070312 738.441406 465.15625 789.300781 C 442.457031 818.996094 415.320312 846.132812 384.429688 869.855469 C 345.859375 899.382812 301.3125 923.789062 251.988281 942.21875 C 250.964844 942.5625 249.769531 942.734375 248.746094 942.734375 Z M 248.746094 942.734375 " fill-opacity="1" fill-rule="evenodd"/></g><g clip-path="url(#d9de416f06)"><path fill="#1c53a3" d="M 346.539062 942.734375 C 342.617188 942.734375 338.859375 940.34375 337.324219 936.417969 C 335.445312 931.296875 338.007812 925.664062 343.128906 923.789062 C 449.285156 884.023438 499.289062 824.628906 522.5 781.621094 C 547.761719 735.199219 548.101562 697.480469 548.101562 696.96875 C 548.101562 691.507812 552.367188 687.070312 557.828125 687.070312 C 563.289062 687.070312 567.558594 691.507812 567.726562 696.796875 C 567.726562 698.503906 567.558594 738.953125 540.421875 789.8125 C 524.550781 819.339844 502.703125 846.304688 475.566406 870.027344 C 441.773438 899.382812 399.617188 923.617188 350.125 942.21875 C 348.929688 942.5625 347.734375 942.734375 346.539062 942.734375 Z M 346.539062 942.734375 " fill-opacity="1" fill-rule="evenodd"/></g><path fill="#1c53a3" d="M 343.296875 552.410156 C 337.835938 552.410156 333.398438 547.972656 333.398438 542.511719 L 333.398438 530.566406 C 333.398438 525.105469 337.835938 520.667969 343.296875 520.667969 C 348.757812 520.667969 353.195312 525.105469 353.195312 530.566406 L 353.195312 542.511719 C 353.195312 547.972656 348.757812 552.410156 343.296875 552.410156 Z M 343.296875 552.410156 " fill-opacity="1" fill-rule="evenodd"/><path fill="#1c53a3" d="M 466.691406 552.410156 C 461.230469 552.410156 456.792969 547.972656 456.792969 542.511719 L 456.792969 530.566406 C 456.792969 525.105469 461.230469 520.667969 466.691406 520.667969 C 472.152344 520.667969 476.589844 525.105469 476.589844 530.566406 L 476.589844 542.511719 C 476.421875 547.972656 472.152344 552.410156 466.691406 552.410156 Z M 466.691406 552.410156 " fill-opacity="1" fill-rule="evenodd"/><path fill="#1c53a3" d="M 407.46875 620.339844 C 383.0625 620.339844 363.265625 600.539062 363.265625 576.136719 C 363.265625 570.671875 367.703125 566.234375 373.164062 566.234375 L 441.773438 566.234375 C 447.234375 566.234375 451.671875 570.671875 451.671875 576.136719 C 451.671875 600.539062 431.875 620.339844 407.46875 620.339844 Z M 384.941406 586.035156 C 388.695312 594.738281 397.398438 600.710938 407.46875 600.710938 C 417.539062 600.710938 426.074219 594.566406 429.996094 586.035156 Z M 384.941406 586.035156 " fill-opacity="1" fill-rule="evenodd"/><g clip-path="url(#f4a939303d)"><path fill="#212121" d="M 608.175781 733.492188 C 603.226562 733.492188 598.960938 729.90625 598.449219 724.957031 L 576.945312 553.4375 C 568.582031 486.019531 545.542969 429.1875 510.210938 389.082031 C 478.640625 353.242188 439.214844 333.441406 399.277344 333.441406 C 360.707031 333.441406 325.207031 351.535156 296.363281 385.496094 C 263.59375 424.238281 241.75 482.265625 232.875 553.4375 L 211.710938 724.789062 C 211.027344 730.25 206.078125 734.003906 200.789062 733.320312 C 195.5 732.636719 191.574219 727.6875 192.253906 722.398438 L 213.417969 550.875 C 218.199219 512.304688 226.730469 477.316406 238.675781 446.765625 C 249.941406 417.925781 264.277344 393.007812 281.515625 372.695312 C 297.898438 353.242188 316.503906 338.390625 336.984375 328.324219 C 356.78125 318.59375 377.773438 313.644531 399.449219 313.644531 C 445.015625 313.644531 489.730469 335.832031 525.0625 376.109375 C 562.949219 419.117188 587.695312 479.707031 596.570312 551.046875 L 617.90625 722.570312 C 618.585938 728.03125 614.832031 732.808594 609.371094 733.492188 C 608.859375 733.492188 608.519531 733.492188 608.175781 733.492188 Z M 608.175781 733.492188 " fill-opacity="1" fill-rule="evenodd"/></g><path fill="#212121" d="M 405.082031 666.761719 C 388.355469 666.761719 371.96875 663.515625 356.609375 656.863281 C 341.761719 650.546875 328.449219 641.5 316.84375 630.066406 C 305.410156 618.632812 296.363281 605.148438 290.050781 590.300781 C 283.5625 574.941406 280.148438 558.554688 280.148438 541.832031 L 280.148438 465.371094 C 280.148438 460.078125 284.417969 455.640625 289.878906 455.472656 C 303.53125 455.300781 316.671875 455.472656 329.304688 455.640625 C 372.824219 456.324219 410.371094 456.835938 427.4375 440.28125 C 435.460938 432.261719 439.386719 419.972656 439.386719 402.5625 C 439.386719 397.101562 443.824219 392.664062 449.285156 392.664062 C 454.746094 392.664062 459.183594 397.101562 459.183594 402.5625 C 459.183594 421.335938 463.960938 424.75 465.496094 425.945312 C 469.933594 429.1875 478.296875 429.871094 488.878906 430.726562 C 498.265625 431.578125 509.871094 432.429688 522.671875 435.84375 C 526.9375 436.867188 530.011719 440.964844 530.011719 445.402344 L 530.011719 541.832031 C 530.011719 558.554688 526.765625 574.941406 520.113281 590.300781 C 513.796875 605.148438 504.75 618.460938 493.316406 630.066406 C 481.882812 641.5 468.398438 650.546875 453.550781 656.863281 C 438.191406 663.347656 421.804688 666.761719 405.082031 666.761719 Z M 299.777344 475.097656 L 299.777344 541.832031 C 299.777344 599.859375 347.050781 647.132812 405.082031 647.132812 C 463.109375 647.132812 510.382812 599.859375 510.382812 541.832031 L 510.382812 453.253906 C 502.019531 451.71875 494.167969 451.035156 487 450.351562 C 473.859375 449.328125 462.425781 448.304688 453.550781 441.816406 C 452.867188 441.304688 452.183594 440.792969 451.503906 440.113281 C 448.773438 445.574219 445.359375 450.351562 441.261719 454.449219 C 430.511719 465.027344 415.148438 471.171875 393.132812 473.902344 C 374.53125 476.121094 352.515625 475.953125 329.132812 475.441406 C 319.40625 475.269531 309.675781 475.097656 299.777344 475.097656 Z M 299.777344 475.097656 " fill-opacity="1" fill-rule="evenodd"/><g clip-path="url(#f09d46c7b3)"><path fill="#212121" d="M 648.625 942.734375 L 161.363281 942.734375 C 155.902344 942.734375 151.464844 938.296875 151.464844 932.832031 L 151.464844 813.023438 C 151.464844 795.617188 154.878906 778.71875 161.707031 762.675781 C 168.191406 747.316406 177.578125 733.320312 189.523438 721.546875 C 201.472656 709.597656 215.296875 700.210938 230.65625 693.726562 C 246.699219 686.898438 263.59375 683.484375 281.003906 683.484375 L 352.171875 683.484375 C 357.632812 683.484375 362.070312 687.921875 362.070312 693.382812 C 362.070312 698.847656 357.632812 703.285156 352.171875 703.285156 L 281.003906 703.285156 C 220.417969 703.285156 171.09375 752.605469 171.09375 813.195312 L 171.09375 923.105469 L 638.554688 923.105469 L 638.554688 813.195312 C 638.554688 752.605469 589.234375 703.285156 528.644531 703.285156 L 457.476562 703.285156 C 452.015625 703.285156 447.578125 698.847656 447.578125 693.382812 C 447.578125 687.921875 452.015625 683.484375 457.476562 683.484375 L 528.644531 683.484375 C 546.054688 683.484375 562.949219 686.898438 578.992188 693.726562 C 594.351562 700.210938 608.347656 709.597656 620.125 721.546875 C 632.070312 733.492188 641.457031 747.316406 647.941406 762.675781 C 654.769531 778.71875 658.183594 795.617188 658.183594 813.023438 L 658.183594 932.832031 C 658.355469 938.464844 654.085938 942.734375 648.625 942.734375 Z M 648.625 942.734375 " fill-opacity="1" fill-rule="evenodd"/></g><path fill="#212121" d="M 405.082031 751.414062 C 370.433594 751.414062 342.445312 723.25 342.445312 688.777344 L 342.445312 644.0625 C 342.445312 638.601562 346.882812 634.164062 352.34375 634.164062 C 357.804688 634.164062 362.242188 638.601562 362.242188 644.0625 L 362.242188 688.777344 C 362.242188 712.5 381.527344 731.785156 405.25 731.785156 C 428.972656 731.785156 448.257812 712.5 448.257812 688.777344 L 448.257812 644.0625 C 448.257812 638.601562 452.695312 634.164062 458.160156 634.164062 C 463.621094 634.164062 468.058594 638.601562 468.058594 644.0625 L 468.058594 688.777344 C 467.714844 723.25 439.554688 751.414062 405.082031 751.414062 Z M 405.082031 751.414062 " fill-opacity="1" fill-rule="evenodd"/><g clip-path="url(#572d83628d)"><path fill="#212121" d="M 227.414062 942.734375 C 221.953125 942.734375 217.515625 938.296875 217.515625 932.832031 L 217.515625 836.917969 C 217.515625 831.457031 221.953125 827.019531 227.414062 827.019531 C 232.875 827.019531 237.3125 831.457031 237.3125 836.917969 L 237.3125 932.832031 C 237.3125 938.464844 232.875 942.734375 227.414062 942.734375 Z M 227.414062 942.734375 " fill-opacity="1" fill-rule="evenodd"/></g><g clip-path="url(#8ec0970ff6)"><path fill="#212121" d="M 227.414062 891.019531 L 161.363281 891.019531 C 155.902344 891.019531 151.464844 886.582031 151.464844 881.121094 C 151.464844 875.660156 155.902344 871.222656 161.363281 871.222656 L 227.414062 871.222656 C 232.875 871.222656 237.3125 875.660156 237.3125 881.121094 C 237.3125 886.582031 232.875 891.019531 227.414062 891.019531 Z M 227.414062 891.019531 " fill-opacity="1" fill-rule="evenodd"/></g><g clip-path="url(#a5f5215596)"><path fill="#212121" d="M 582.578125 942.734375 C 577.113281 942.734375 572.675781 938.296875 572.675781 932.832031 L 572.675781 836.917969 C 572.675781 831.457031 577.113281 827.019531 582.578125 827.019531 C 588.039062 827.019531 592.476562 831.457031 592.476562 836.917969 L 592.476562 932.832031 C 592.476562 938.464844 588.039062 942.734375 582.578125 942.734375 Z M 582.578125 942.734375 " fill-opacity="1" fill-rule="evenodd"/></g><g clip-path="url(#ad6bf47ec6)"><path fill="#212121" d="M 648.625 891.019531 L 582.578125 891.019531 C 577.113281 891.019531 572.675781 886.582031 572.675781 881.121094 C 572.675781 875.660156 577.113281 871.222656 582.578125 871.222656 L 648.625 871.222656 C 654.085938 871.222656 658.523438 875.660156 658.523438 881.121094 C 658.523438 886.582031 654.085938 891.019531 648.625 891.019531 Z M 648.625 891.019531 " fill-opacity="1" fill-rule="evenodd"/></g></svg>