<svg width="188" height="130" viewBox="0 0 188 130" fill="none" xmlns="http://www.w3.org/2000/svg">
<path fill-rule="evenodd" clip-rule="evenodd" d="M95.7651 14.8837C96.0921 15.5814 95.952 17.0232 96.0454 18C96.1855 18.9767 96.419 19.6744 96.7926 20.5581C97.8668 22.9767 99.0811 24.6511 100.436 26.4651C101.603 27.9999 103.425 30.1395 103.144 32.9767C102.958 34.7441 101.276 37.3953 100.669 39.8139C99.8751 43.0697 99.9685 44.8836 100.809 47.9999H111.318C111.037 40.6976 108.609 38.9301 108.142 36.7906C106.927 30.9302 114.82 33.9069 115.101 47.9999H115.895C116.035 45.5813 116.735 43.9534 116.408 41.2092C114.54 25.3953 102.631 28.279 97.7267 17.7209C97.1196 16.3721 96.6058 13.3488 95.9987 12.5581L95.7651 14.8837Z" fill="#1C53A3"/>
<path fill-rule="evenodd" clip-rule="evenodd" d="M76.3828 47.9999H77.0367C77.1301 44.6045 77.5971 41.9534 78.5779 39.0697C79.1384 37.5813 81.2867 32.8836 83.4351 34.372C85.2566 35.8604 82.7813 39.1162 82.1741 40.7441C81.3802 42.9301 80.8197 45.5813 80.773 47.9999H91.2347C94.0837 40.6976 88.7594 35.8604 88.9462 31.9069C89.0864 28.465 93.3364 25.5813 95.9519 18.9302C96.1387 19.1162 96.559 19.2558 96.7926 20.5581C96.4189 19.6744 96.1854 18.9767 96.0453 18C95.9519 17.0232 96.2321 13.3023 95.9986 12.5581C95.5782 13.2093 95.1112 16.4186 94.7843 17.2093C92.776 21.8604 90.3941 23.2558 86.4709 25.8139C85.0698 26.7441 83.7154 27.6278 82.5478 28.5116C76.7564 32.9767 74.5613 38.7906 76.3828 47.9999Z" fill="#5DA6DB"/>
<path fill-rule="evenodd" clip-rule="evenodd" d="M93.103 17.2093C92.636 15.7209 91.6085 14.6977 92.5426 12.5581C94.1305 9.02325 98.8476 10 99.735 12.9302C100.389 15.1628 99.3147 16.093 98.5674 17.4418C103.985 16.9767 105.153 5.11629 96.6058 4.3721C92.9162 4.09303 90.3475 6.51163 89.4601 9.16279C88.2925 12.5581 90.5343 16.9302 93.103 17.2093Z" fill="#FFB156"/>
<path fill-rule="evenodd" clip-rule="evenodd" d="M118.323 31.8606C120.705 31.4885 121.032 27.2094 116.081 26.2327C111.224 25.256 113.419 22.7908 110.71 20.6048C110.29 20.2792 109.216 19.7676 109.029 19.5815C108.469 18.9304 108.889 18.4653 107.955 17.9071C106.274 16.8839 104.639 17.6746 104.219 19.349C102.35 27.535 107.441 22.6048 107.861 22.4187C109.87 23.7211 108.562 26.4187 112.812 28.9304C114.727 28.4652 111.224 29.4885 113.373 28.6978L113.793 28.5583C116.875 27.628 119.678 28.9304 118.323 31.8606Z" fill="#1C53A3"/>
<path fill-rule="evenodd" clip-rule="evenodd" d="M79.4187 28.9302C80.8199 27.6279 81.427 27.7675 82.221 25.9535C82.8749 24.5116 82.8749 23.6744 83.9958 22.3256C85.3502 22.7907 86.004 24.8372 87.5453 23.721C88.8063 22.7442 88.5728 17.4884 85.6771 17.4419C83.5287 17.4419 83.8089 18.5582 83.0617 19.4419C82.4078 20.1861 81.2869 20.2326 80.4462 21.5349C78.6248 24.3721 80.1193 25.3023 75.8225 26.2326C73.4406 26.7442 70.5916 29.0698 72.7867 31.4419C73.6741 30.3721 73.067 27.6744 77.4572 28.3721L79.4187 28.9302Z" fill="#5DA6DB"/>
<path fill-rule="evenodd" clip-rule="evenodd" d="M89.9271 5.72109C89.8804 4.88388 89.6936 5.06993 89.1332 4.32574C88.4793 3.349 88.6194 3.349 87.3584 3.44202C87.6386 4.65132 88.6661 5.81411 89.9271 5.72109Z" fill="#FFC889"/>
<path fill-rule="evenodd" clip-rule="evenodd" d="M101.79 5.44203C102.257 5.25598 102.958 5.02342 103.471 4.79086C104.405 4.32575 104.312 4.27924 104.499 3.20947C102.818 3.7211 101.977 3.81412 101.79 5.44203Z" fill="#FFC889"/>
<path fill-rule="evenodd" clip-rule="evenodd" d="M103.471 8.65089C103.938 8.51135 104.639 8.23228 105.153 7.99972C106.087 7.58112 105.993 7.4881 106.227 6.46484C104.499 6.92996 103.658 7.02298 103.471 8.65089Z" fill="#FFC889"/>
<path fill-rule="evenodd" clip-rule="evenodd" d="M88.2924 8.97691C88.0122 8.32575 88.199 8.60482 87.732 8.18622C87.6853 8.1397 87.1248 7.76761 87.0781 7.76761C86.1907 7.3025 86.2375 7.3025 85.21 7.58157C85.677 8.79087 87.1248 9.02342 88.2924 8.97691Z" fill="#FFC889"/>
<path fill-rule="evenodd" clip-rule="evenodd" d="M92.5891 3.48858C92.5424 1.81417 92.6825 1.02347 91.188 0.465332C91.2814 2.13975 91.0012 2.97695 92.5891 3.48858Z" fill="#FFC889"/>
<path fill-rule="evenodd" clip-rule="evenodd" d="M99.0343 3.20939C99.6414 2.93032 99.6882 2.88381 100.249 2.37218C101.136 1.53497 100.902 1.81404 100.949 0.511719C99.7349 1.02335 98.9876 1.58148 99.0343 3.20939Z" fill="#FFC889"/>
<path fill-rule="evenodd" clip-rule="evenodd" d="M95.8584 2.69767C96.3255 2.4186 96.3255 2.37209 96.6524 1.86046C97.1194 0.976742 97.026 1.30232 96.4656 0C95.4848 0.511627 95.0177 1.06977 95.8584 2.69767Z" fill="#FFC889"/>
<path d="M56.5563 87V67.4H60.8123L67.0563 79.832L73.2163 67.4H77.4723V87H73.8883V73.476L68.4283 84.2H65.6003L60.1403 73.476V87H56.5563ZM85.9791 87.336C84.7844 87.336 83.8044 87.1493 83.0391 86.776C82.2738 86.384 81.7044 85.8707 81.3311 85.236C80.9578 84.6013 80.7711 83.9013 80.7711 83.136C80.7711 81.848 81.2751 80.8027 82.2831 80C83.2911 79.1973 84.8031 78.796 86.8191 78.796H90.3471V78.46C90.3471 77.508 90.0764 76.808 89.5351 76.36C88.9938 75.912 88.3218 75.688 87.5191 75.688C86.7911 75.688 86.1564 75.8653 85.6151 76.22C85.0738 76.556 84.7378 77.06 84.6071 77.732H81.1071C81.2004 76.724 81.5364 75.8467 82.1151 75.1C82.7124 74.3533 83.4778 73.784 84.4111 73.392C85.3444 72.9813 86.3898 72.776 87.5471 72.776C89.5258 72.776 91.0844 73.2707 92.2231 74.26C93.3618 75.2493 93.9311 76.6493 93.9311 78.46V87H90.8791L90.5431 84.76C90.1324 85.5067 89.5538 86.1227 88.8071 86.608C88.0791 87.0933 87.1364 87.336 85.9791 87.336ZM86.7911 84.536C87.8178 84.536 88.6111 84.2 89.1711 83.528C89.7498 82.856 90.1138 82.0253 90.2631 81.036H87.2111C86.2591 81.036 85.5778 81.2133 85.1671 81.568C84.7564 81.904 84.5511 82.324 84.5511 82.828C84.5511 83.3693 84.7564 83.7893 85.1671 84.088C85.5778 84.3867 86.1191 84.536 86.7911 84.536ZM99.2833 70.956C98.6299 70.956 98.0886 70.76 97.6593 70.368C97.2486 69.976 97.0433 69.4813 97.0433 68.884C97.0433 68.2867 97.2486 67.8013 97.6593 67.428C98.0886 67.036 98.6299 66.84 99.2833 66.84C99.9366 66.84 100.469 67.036 100.879 67.428C101.309 67.8013 101.523 68.2867 101.523 68.884C101.523 69.4813 101.309 69.976 100.879 70.368C100.469 70.76 99.9366 70.956 99.2833 70.956ZM97.4913 87V73.112H101.075V87H97.4913ZM111.004 87C109.548 87 108.381 86.6453 107.504 85.936C106.627 85.2267 106.188 83.9667 106.188 82.156V76.108H103.808V73.112H106.188L106.608 69.388H109.772V73.112H113.524V76.108H109.772V82.184C109.772 82.856 109.912 83.3227 110.192 83.584C110.491 83.8267 110.995 83.948 111.704 83.948H113.44V87H111.004ZM116.601 87V73.112H119.793L120.129 75.716C120.633 74.82 121.315 74.1107 122.173 73.588C123.051 73.0467 124.077 72.776 125.253 72.776V76.556H124.245C123.461 76.556 122.761 76.6773 122.145 76.92C121.529 77.1627 121.044 77.5827 120.689 78.18C120.353 78.7773 120.185 79.608 120.185 80.672V87H116.601ZM129.635 70.956C128.981 70.956 128.44 70.76 128.011 70.368C127.6 69.976 127.395 69.4813 127.395 68.884C127.395 68.2867 127.6 67.8013 128.011 67.428C128.44 67.036 128.981 66.84 129.635 66.84C130.288 66.84 130.82 67.036 131.231 67.428C131.66 67.8013 131.875 68.2867 131.875 68.884C131.875 69.4813 131.66 69.976 131.231 70.368C130.82 70.76 130.288 70.956 129.635 70.956ZM127.843 87V73.112H131.427V87H127.843ZM31.072 123V103.4H35.328L41.572 115.832L47.732 103.4H51.988V123H48.404V109.476L42.944 120.2H40.116L34.656 109.476V123H31.072ZM60.4947 123.336C59.3001 123.336 58.3201 123.149 57.5547 122.776C56.7894 122.384 56.2201 121.871 55.8467 121.236C55.4734 120.601 55.2867 119.901 55.2867 119.136C55.2867 117.848 55.7907 116.803 56.7987 116C57.8067 115.197 59.3187 114.796 61.3347 114.796H64.8627V114.46C64.8627 113.508 64.5921 112.808 64.0507 112.36C63.5094 111.912 62.8374 111.688 62.0347 111.688C61.3067 111.688 60.6721 111.865 60.1307 112.22C59.5894 112.556 59.2534 113.06 59.1227 113.732H55.6227C55.7161 112.724 56.0521 111.847 56.6307 111.1C57.2281 110.353 57.9934 109.784 58.9267 109.392C59.8601 108.981 60.9054 108.776 62.0627 108.776C64.0414 108.776 65.6001 109.271 66.7387 110.26C67.8774 111.249 68.4467 112.649 68.4467 114.46V123H65.3947L65.0587 120.76C64.6481 121.507 64.0694 122.123 63.3227 122.608C62.5947 123.093 61.6521 123.336 60.4947 123.336ZM61.3067 120.536C62.3334 120.536 63.1267 120.2 63.6867 119.528C64.2654 118.856 64.6294 118.025 64.7787 117.036H61.7267C60.7747 117.036 60.0934 117.213 59.6827 117.568C59.2721 117.904 59.0667 118.324 59.0667 118.828C59.0667 119.369 59.2721 119.789 59.6827 120.088C60.0934 120.387 60.6347 120.536 61.3067 120.536ZM71.8669 123V109.112H75.0309L75.3109 111.464C75.7402 110.643 76.3562 109.989 77.1589 109.504C77.9802 109.019 78.9415 108.776 80.0429 108.776C81.7602 108.776 83.0949 109.317 84.0469 110.4C84.9989 111.483 85.4749 113.069 85.4749 115.16V123H81.8909V115.496C81.8909 114.301 81.6482 113.387 81.1629 112.752C80.6775 112.117 79.9215 111.8 78.8949 111.8C77.8869 111.8 77.0562 112.155 76.4029 112.864C75.7682 113.573 75.4509 114.563 75.4509 115.832V123H71.8669ZM95.286 123.336C93.9794 123.336 92.8127 123.019 91.786 122.384C90.7594 121.749 89.9474 120.881 89.35 119.78C88.7527 118.679 88.454 117.428 88.454 116.028C88.454 114.628 88.7527 113.387 89.35 112.304C89.9474 111.203 90.7594 110.344 91.786 109.728C92.8127 109.093 93.9794 108.776 95.286 108.776C96.3314 108.776 97.246 108.972 98.03 109.364C98.814 109.756 99.4487 110.307 99.934 111.016V102.84H103.518V123H100.326L99.934 121.012C99.486 121.628 98.8887 122.169 98.142 122.636C97.414 123.103 96.462 123.336 95.286 123.336ZM96.042 120.2C97.1994 120.2 98.142 119.817 98.87 119.052C99.6167 118.268 99.99 117.269 99.99 116.056C99.99 114.843 99.6167 113.853 98.87 113.088C98.142 112.304 97.1994 111.912 96.042 111.912C94.9034 111.912 93.9607 112.295 93.214 113.06C92.4674 113.825 92.094 114.815 92.094 116.028C92.094 117.241 92.4674 118.24 93.214 119.024C93.9607 119.808 94.9034 120.2 96.042 120.2ZM107.168 123V109.112H110.36L110.696 111.716C111.2 110.82 111.881 110.111 112.74 109.588C113.617 109.047 114.644 108.776 115.82 108.776V112.556H114.812C114.028 112.556 113.328 112.677 112.712 112.92C112.096 113.163 111.61 113.583 111.256 114.18C110.92 114.777 110.752 115.608 110.752 116.672V123H107.168ZM123.057 123.336C121.863 123.336 120.883 123.149 120.117 122.776C119.352 122.384 118.783 121.871 118.409 121.236C118.036 120.601 117.849 119.901 117.849 119.136C117.849 117.848 118.353 116.803 119.361 116C120.369 115.197 121.881 114.796 123.897 114.796H127.425V114.46C127.425 113.508 127.155 112.808 126.613 112.36C126.072 111.912 125.4 111.688 124.597 111.688C123.869 111.688 123.235 111.865 122.693 112.22C122.152 112.556 121.816 113.06 121.685 113.732H118.185C118.279 112.724 118.615 111.847 119.193 111.1C119.791 110.353 120.556 109.784 121.489 109.392C122.423 108.981 123.468 108.776 124.625 108.776C126.604 108.776 128.163 109.271 129.301 110.26C130.44 111.249 131.009 112.649 131.009 114.46V123H127.957L127.621 120.76C127.211 121.507 126.632 122.123 125.885 122.608C125.157 123.093 124.215 123.336 123.057 123.336ZM123.869 120.536C124.896 120.536 125.689 120.2 126.249 119.528C126.828 118.856 127.192 118.025 127.341 117.036H124.289C123.337 117.036 122.656 117.213 122.245 117.568C121.835 117.904 121.629 118.324 121.629 118.828C121.629 119.369 121.835 119.789 122.245 120.088C122.656 120.387 123.197 120.536 123.869 120.536ZM134.429 123V109.112H137.593L137.901 110.988C138.349 110.316 138.937 109.784 139.665 109.392C140.412 108.981 141.271 108.776 142.241 108.776C144.388 108.776 145.909 109.607 146.805 111.268C147.309 110.503 147.981 109.896 148.821 109.448C149.68 109 150.613 108.776 151.621 108.776C153.432 108.776 154.823 109.317 155.793 110.4C156.764 111.483 157.249 113.069 157.249 115.16V123H153.665V115.496C153.665 114.301 153.432 113.387 152.965 112.752C152.517 112.117 151.817 111.8 150.865 111.8C149.895 111.8 149.111 112.155 148.513 112.864C147.935 113.573 147.645 114.563 147.645 115.832V123H144.061V115.496C144.061 114.301 143.828 113.387 143.361 112.752C142.895 112.117 142.176 111.8 141.205 111.8C140.253 111.8 139.479 112.155 138.881 112.864C138.303 113.573 138.013 114.563 138.013 115.832V123H134.429Z" fill="black"/>
<circle cx="99" cy="68" r="3" fill="#FFBE21"/>
<circle cx="130" cy="68" r="3" fill="#FFBE21"/>
</svg>
